#!OML:ASF H:\Terrain\Patient Classification 1\Walking\liu\liu.ASF
:FULLY-SPECIFIED
:DEGREES
403
root 10.5314 16.935 23.4743 8.54774 -4.85811 -5.60096
lowerback -8.15403 1.46292 1.83868
upperback -1.05221 1.65067 3.49594
thorax 3.43049 0.823954 2.77186
lowerneck -18.2351 -4.80382 -13.061
upperneck 19.735 -6.34293 14.2614
head 10.2031 -2.36457 6.40535
rclavicle -1.27968e-014 2.34566e-014
rhumerus -37.9472 18.1338 -86.6218
rradius 58.7657
rwrist -31.7654
rhand -31.7352 -31.1197
rfingers 7.12502
rthumb -4.9931 -61.0408
lclavicle -1.27968e-014 2.34566e-014
lhumerus -45.8574 -10.0656 96.5649
lradius 25.7387
lwrist 6.33513
lhand -11.4249 -22.8311
lfingers 7.12502
lthumb 14.6112 6.63422
rfemur 16.2617 4.79625 29.9462
rtibia 5.725e-014
rfoot -11.2886 3.53483
rtoes -19.1187
lfemur -40.6105 -0.172738 -11.2745
ltibia 17.9481
lfoot -11.4581 12.5988
ltoes -13.3177
404
root 10.5637 16.921 23.6545 8.64397 -5.04673 -5.65367
lowerback -8.05204 1.61664 2.06949
upperback -1.77037 1.86945 3.45276
thorax 2.63051 0.936988 2.59914
lowerneck -16.7184 -4.79933 -13.3537
upperneck 19.9858 -6.46848 14.2747
head 10.0323 -2.49902 6.45348
rclavicle 1.86361e-016 -1.31198e-014
rhumerus -40.0191 17.7339 -87.2079
rradius 59.1066
rwrist -32.2242
rhand -31.71 -31.8395
rfingers 7.12502
rthumb -4.96872 -61.7613
lclavicle 1.86361e-016 -1.31198e-014
lhumerus -47.3016 -10.4662 97.1936
lradius 25.8256
lwrist 6.35374
lhand -11.9548 -23.0004
lfingers 7.12502
lthumb 14.1006 6.50117
rfemur 16.7482 4.8426 29.7593
rtibia -6.99722e-014
rfoot -10.9379 3.85777
rtoes -19.5268
lfemur -40.5081 0.586107 -11.8956
ltibia 18.8053
lfoot -10.8013 11.8064
ltoes -15.0867
405
root 10.5884 16.9199 23.8299 8.71133 -5.35409 -5.77499
lowerback -8.34505 1.72458 2.2693
upperback -1.54531 1.97501 3.38776
thorax 3.03263 0.990745 2.44688
lowerneck -18.6095 -5.1535 -12.3773
upperneck 21.2525 -6.85481 13.0616
head 10.8281 -2.65949 5.80936
rclavicle -8.82107e-016 -1.11319e-014
rhumerus -39.8027 17.3289 -87.1456
rradius 58.7342
rwrist -31.477
rhand -29.5121 -31.2089
rfingers 7.12502
rthumb -2.84627 -61.1697
lclavicle -8.82107e-016 -1.11319e-014
lhumerus -46.5746 -10.6977 97.0661
lradius 25.5032
lwrist 6.1625
lhand -11.9685 -23.1116
lfingers 7.12502
lthumb 14.0874 6.39092
rfemur 17.2304 4.99492 29.7093
rtibia -2.22639e-014
rfoot -10.4399 3.90944
rtoes -21.6226
lfemur -40.4406 1.23903 -12.1981
ltibia 19.7328
lfoot -8.79606 11.5187
ltoes -13.9259
406
root 10.6054 16.9315 23.9966 8.75045 -5.71224 -6.08346
lowerback -8.55635 1.58007 2.33809
upperback -0.784891 1.73252 3.44723
thorax 3.94695 0.870714 2.47068
lowerneck -24.2021 -5.62285 -9.96933
upperneck 24.142 -7.35963 10.6226
head 12.8932 -2.7793 4.44235
rclavicle -1.53064e-014 1.70955e-014
rhumerus -38.5446 18.0247 -87.4918
rradius 58.9202
rwrist -32.3506
rhand -30.5993 -32.4512
rfingers 7.12502
rthumb -3.89618 -62.3953
lclavicle -1.53064e-014 1.70955e-014
lhumerus -44.6925 -10.2995 96.2813
lradius 25.1921
lwrist 5.93553
lhand -12.2269 -23.3215
lfingers 7.12502
lthumb 13.8384 6.19813
rfemur 17.6986 5.20632 29.8974
rtibia 6.36111e-015
rfoot -9.65254 3.74312
rtoes -23.8358
lfemur -40.6185 1.6285 -11.9695
ltibia 20.7466
lfoot -5.35844 12.0037
ltoes -9.17702
